# xmcd CD database file
#
# Track frame offsets:
#	150
#	22026
#	42728
#	69031
#	91022
#	106782
#	136025
#	158445
#	174366
#	196533
#	221106
#	243728
#	264455
#	283280
#	310327
#	326789
#
# Disc length: 4706 seconds
#
# Revision: 0
# Processed by: cddbd v1.5.2PL0 Copyright (c) Steve Scherf et al.
# Submitted via: CDex 1.51
#
DISCID=db126010
DTITLE=Bobby Timmons - Six Classic Albums CD3
DYEAR=1961
DGENRE=Jazz
TTITLE0=Easy Does It
TTITLE1=Old Devil Moon
TTITLE2=A Little Busy
TTITLE3=I Don't Stand A Ghost Of A Chance With You
TTITLE4=Pretty Memory
TTITLE5=If You Could See Me Now
TTITLE6=I Thought About You
TTITLE7=Grroovin' High
TTITLE8=The Sweetest Sounds
TTITLE9=Turn Left
TTITLE10=God Bless The Child
TTITLE11=You'd Be So Nice To Come Home To
TTITLE12=Another One Live
TTITLE13=Alone Together
TTITLE14=Spring Can Really Hurt You
TTITLE15=Why Was i Born
EXTD=YEAR: 1961
EXTT0=
EXTT1=
EXTT2=
EXTT3=
EXTT4=
EXTT5=
EXTT6=
EXTT7=
EXTT8=
EXTT9=
EXTT10=
EXTT11=
EXTT12=
EXTT13=
EXTT14=
EXTT15=
PLAYORDER=
